# xmcd
#
# Track frame offsets: 
#        182
#        15115
#        31375
#        47175
#        59405
#        71655
#        82287
#        95122
#        123195
#        137325
#        152482
#        171760
#        190145
#        200770
#        214127
#        229475
#
# Disc length: 3230 seconds
#
# Revision: 4
# Processed by: cddbd v1.5.2PL0 Copyright (c) Steve Scherf et al.
# Submitted via: ExactAudioCopyFreeDBPlugin 1.0
#
DISCID=e20c9c10
DTITLE=Various Artist - Smooth Grooves:  The 60's [Rhino]
DYEAR=1997
DGENRE=Rhythm and Blues
TTITLE0=The Delphonics - La-La-Means I Love You
TTITLE1=Eddie Holman - Hey There Lonely Girl
TTITLE2=The Dynamics - Ice Cream Song
TTITLE3=Eddie Floyd - I've Never Found a Girl (To Love Me Like You Do)
TTITLE4=Aaron Neville - Tell it Like it Is
TTITLE5=Al Greene and The Soul Mates - Back Up Train
TTITLE6=Percy Sledge - Cover Me
TTITLE7=The Dells - Stay in My Corner
TTITLE8=Toussaint McCall - Nothing Takes the Place of You
TTITLE9=Aretha Franklin - Share Your Love with Me
TTITLE10=The Friends of Distiction - Going in Circles
TTITLE11=The Moments - Not on the Outside
TTITLE12=William Bell - I Forgot to Be Your Lover
TTITLE13=The Intruders - Baby I'm Lonely
TTITLE14=The Masqueraders - I'm Just an Average Guy
TTITLE15=The Unifics - Court of Love
EXTD=
EXTT0=
EXTT1=
EXTT2=
EXTT3=
EXTT4=
EXTT5=
EXTT6=
EXTT7=
EXTT8=
EXTT9=
EXTT10=
EXTT11=
EXTT12=
EXTT13=
EXTT14=
EXTT15=
PLAYORDER=
